# xmcd
#
# Track frame offsets: 
#        150
#        15378
#        26540
#        34967
#        48028
#        60109
#        69492
#        80675
#        95302
#        107699
#        122559
#        136537
#        149155
#        163911
#        171718
#        182483
#        194871
#        206273
#        221632
#        233349
#        249159
#        264147
#        282114
#        298469
#
# Disc length: 4124 seconds
#
# Revision: 0
# Processed by: cddbd v1.5.2PL0 Copyright (c) Steve Scherf et al.
# Submitted via: ExactAudioCopyFreeDBPlugin 1.0
#
DISCID=54101a18
DTITLE=Various Artist - Bluegrass Advent Kralupy
DYEAR=1999
DGENRE=Bluegrass
TTITLE0=Petr Kůs a Fámy - Fámy
TTITLE1=Petr Kůs a Fámy - Kouzelná báj
TTITLE2=Petr Kůs a Fámy - Bejt jako on
TTITLE3=Petr Kůs a Fámy - Dal jsem tvejm očím pláč
TTITLE4=Petr Kůs a Fámy - Jsem jedinej
TTITLE5=Petr Kůs a Fámy - Koukej hrát
TTITLE6=Nová sekce - Starý kecky
TTITLE7=Nová sekce - Who Needs You
TTITLE8=Nová sekce - One Track Man
TTITLE9=Nová sekce - Carolina Moon
TTITLE10=Nová sekce - Solid Rock
TTITLE11=Nová sekce - Nine Pound Hammer
TTITLE12=Reliéf - I Keep Looking Back to Yesterday
TTITLE13=Reliéf - Vánoční magnet a střelec
TTITLE14=Reliéf - Vánoční kolíbka a kolíbání
TTITLE15=Reliéf - Love's Gonna Live Here
TTITLE16=Reliéf - Sophronic
TTITLE17=Reliéf - Už větry tichnou
TTITLE18=Modrotisk - Zastavení dobra
TTITLE19=Modrotisk - Tulák po hvězdách
TTITLE20=Modrotisk - Prám dám snům
TTITLE21=Modrotisk - I Walk in the Irish Rain
TTITLE22=Modrotisk - Křídla
TTITLE23=Modrotisk - Nejrychlejší harmonika z Jihu
EXTD=
EXTT0=
EXTT1=
EXTT2=
EXTT3=
EXTT4=
EXTT5=
EXTT6=
EXTT7=
EXTT8=
EXTT9=
EXTT10=
EXTT11=
EXTT12=
EXTT13=
EXTT14=
EXTT15=
EXTT16=
EXTT17=
EXTT18=
EXTT19=
EXTT20=
EXTT21=
EXTT22=
EXTT23=
PLAYORDER=
